/* XPM */
static char *freeimage[] = {
/* columns rows colors chars-per-pixel */
"32 32 154 2 ",
"   c #0E234C",
".  c #0C3053",
"X  c #0D385A",
"o  c #0B3D59",
"O  c #0A3F58",
"+  c #0E3C60",
"@  c #113162",
"#  c #113364",
"$  c #113464",
"%  c #113565",
"&  c #103764",
"*  c #103866",
"=  c #103966",
"-  c #103B67",
";  c #103D67",
":  c #0B415A",
">  c #0B415B",
",  c #0C415D",
"<  c #0B4660",
"1  c #0C4663",
"2  c #0C4862",
"3  c #0C4965",
"4  c #0D4966",
"5  c #0C4B66",
"6  c #0C4C67",
"7  c #0E486B",
"8  c #0D4D68",
"9  c #0D4F6B",
"0  c #104168",
"q  c #0A5064",
"w  c #0D516D",
"e  c #124272",
"r  c #114772",
"t  c #124672",
"y  c #114B74",
"u  c #0D5471",
"i  c #0D5572",
"p  c #0E5472",
"a  c #0E5573",
"s  c #0E5773",
"d  c #0E5474",
"f  c #0E5574",
"g  c #0E5674",
"h  c #0E5775",
"j  c #0E5776",
"k  c #0C5E73",
"l  c #0E5875",
"z  c #0E5876",
"x  c #0E5976",
"c  c #0E5A76",
"v  c #0E5A77",
"b  c #0E5B77",
"n  c #0E5A78",
"m  c #0E5B78",
"M  c #0D5F78",
"N  c #0F5E7D",
"B  c #0D6179",
"V  c #096D78",
"C  c #0D687D",
"Z  c #0D6B7F",
"A  c #087374",
"S  c #155F8F",
"D  c #106282",
"F  c #116889",
"G  c #0C7281",
"H  c #0B7A86",
"J  c #0B7E87",
"K  c #127498",
"L  c #147DA3",
"P  c #147EA4",
"I  c #0A848A",
"U  c #078E8A",
"Y  c #098F8F",
"T  c #069B8E",
"R  c #1583AA",
"E  c #1583AB",
"W  c #1484AA",
"Q  c #1982B6",
"!  c #178AB3",
"~  c #168AB4",
"^  c #168BB4",
"/  c #1790BA",
"(  c #07AAA1",
")  c #03C4AC",
"_  c #04D1B4",
"`  c #04D2B6",
"'  c #03D8B7",
"]  c #03D9B9",
"[  c #03DBB9",
"{  c #03DBBB",
"}  c #1796C2",
"|  c #1A99CA",
" . c #189DC9",
".. c #19A0CF",
"X. c #19A3D0",
"o. c #19A4D4",
"O. c #1BACDB",
"+. c #1BADDC",
"@. c #1DB7E4",
"#. c #1DB7E6",
"$. c #1CB6E8",
"%. c #1CB6EB",
"&. c #1DB7EB",
"*. c #1DB7EC",
"=. c #1DB8EC",
"-. c #1DB9ED",
";. c #1DBAEE",
":. c #1DBCF0",
">. c #1DBDF0",
",. c #1DBDF1",
"<. c #1DBDF2",
"1. c #1EBFF4",
"2. c #02E5C1",
"3. c #01F7C2",
"4. c #00F9C4",
"5. c #00FFC4",
"6. c #00FFC5",
"7. c #00FFC6",
"8. c #01FCC9",
"9. c #00FFC8",
"0. c #00FFCA",
"q. c #00FFCB",
"w. c #00FFCC",
"e. c #00FCCE",
"r. c #00FECE",
"t. c #00FFCE",
"y. c #00FFCF",
"u. c #01F8D0",
"i. c #00FFD0",
"p. c #00FFD1",
"a. c #00FFD2",
"s. c #00FFD3",
"d. c #00FFD4",
"f. c #00FFD5",
"g. c #00FFD6",
"h. c #00FFD7",
"j. c #00FFD9",
"k. c #00FFDA",
"l. c #1EC0F5",
"z. c #1EC1F6",
"x. c #1EC2F7",
"c. c #1EC2F8",
"v. c #1EC3F9",
"b. c #1EC4F8",
"n. c #1EC4FA",
"m. c #1FC8FF",
"M. c #1FC9FF",
"N. c #20CCFF",
"B. c #20CEFF",
"V. c #20CFFF",
"C. c #21D1FF",
"Z. c #20D3FF",
"A. c #21D6FF",
"S. c None",
/* pixels */
"S.S.S.S.S.S.S.S.S.S.S.S.S.S.S.S.S.S.S.S.S.S.S.S.S.S.S.S.S.S.S.S.",
"S.S.S.S.S.S.S.S.S.S.S.S.S.S.S.S.S.S.S.S.S.S.S.S.S.S.S.S.S.S.S.S.",
"S.S.S.S.S.S.S.S.S.S.S.S.S.S.S.S.S.S.S.S.S.S.S.S.S.S.S.S.S.S.S.S.",
"S.S.S.S.S.S.S.S.S.S.S.S.S.S.S.S.S.S.S.S.S.S.S.S.S.S.S.S.S.S.S.S.",
"S.S.S.S.S.S.S.S.S.S.S.S.S.S.S.S.S.S.S.S.S.S.S.S.S.S.S.S.S.S.S.S.",
"S.S.S.S.S.S.S.S.S.S.S.S.S.S.S.S.S.S.S.S.S.S.S.S.S.S.S.S.S.S.S.S.",
"S.S.S.S.S.S.S.S.S.S.S.S.6.8.6.6.6.8.6.8.S.S.S.S.S.S.S.S.S.S.S.S.",
"S.S.S.S.S.S.S.S.S.S.8.6.6.6.8.6.6.6.6.6.6.6.S.S.S.S.S.S.S.S.S.S.",
"S.S.S.S.S.S.S.S.S.6.8.6.6.6.8.6.8.6.6.6.8.6.8.S.S.S.S.S.S.S.S.S.",
"S.S.S.S.S.S.S.S.6.6.6.6.6.6.6.8.w.6.6.6.6.6.6.6.S.S.S.S.S.S.S.S.",
"S.S.S.S.S.S.S.8.6.6.8.6.6.6.w.4.3.w.5.6.6.6.6.6.6.S.S.S.S.S.S.S.",
"S.S.S.S.S.S.S.6.6.8.6.6.5.s.k.H C k.s.6.6.8.8.6.8.S.S.S.S.S.S.S.",
"S.S.S.S.S.S.6.6.8.6.6.6.h.w.Y = @ I w.k.6.6.6.6.6.5.S.S.S.S.S.S.",
"S.S.S.S.S.S.k.8.6.6.5.h.{ B # i b & M ' h.6.6.6.6.h.S.S.S.S.S.S.",
"S.S.S.m & A ) 8.k.s.h.' 0 = b h h b - - ` h.s.h.s.2.T S.S.S.S.S.",
"S.S.h i i S y q U ` u.J @ b h h h h m & G w.' ( V 4 r 2 S.S.S.S.",
"S.S.h S.S.S.$.Q e . k m h h h h h h h i b C 7   t | S.S.S.S.S.S.",
"S.S.h S.S.S.C.1.+.! + , b h h h h h j z i X o L b.V.S.S.S.S.S.S.",
"S.S.S.i 6 K W W ^ @.@.D o 8 b h h b p 1 : B ..M.n.-.S.S.S.S.S.S.",
"S.S.S.S.< S.X.n.*.o.C.c.E w < i h 4 4 F / l.M.1.-.-.S.S.S.S.S.S.",
"S.S.S.S.S.S.A.;.1.1.%.c.V.$.^ 8 : L O.c.V.z.-.-.-.-.S.S.S.S.S.S.",
"S.S.S.S.S.S.S.-.-.-.-.-.-.m.m...} 1.V.1.-.-.;.-.;.S.S.S.S.S.S.S.",
"S.S.S.S.S.S.S.S.-.:.-.-.-.-.1.N.N.1.-.-.-.-.-.-.S.S.S.S.S.S.S.S.",
"S.S.S.S.S.S.S.S.-.-.-.:.-.-.-.;.-.-.-.-.-.1.-.S.S.S.S.S.S.S.S.S.",
"S.S.S.S.S.S.S.S.S.S.;.;.;.;.;.;.;.;.;.;.;.;.S.S.S.S.S.S.S.S.S.S.",
"S.S.S.S.S.S.S.S.S.S.S.;.;.;.;.;.;.;.;.;.;.S.S.S.S.S.S.S.S.S.S.S.",
"S.S.S.S.S.S.S.S.S.S.S.S.S.S.;.;.;.;.S.S.S.S.S.S.S.S.S.S.S.S.S.S.",
"S.S.S.S.S.S.S.S.S.S.S.S.S.S.S.S.S.S.S.S.S.S.S.S.S.S.S.S.S.S.S.S.",
"S.S.S.S.S.S.S.S.S.S.S.S.S.S.S.S.S.S.S.S.S.S.S.S.S.S.S.S.S.S.S.S.",
"S.S.S.S.S.S.S.S.S.S.S.S.S.S.S.S.S.S.S.S.S.S.S.S.S.S.S.S.S.S.S.S.",
"S.S.S.S.S.S.S.S.S.S.S.S.S.S.S.S.S.S.S.S.S.S.S.S.S.S.S.S.S.S.S.S.",
"S.S.S.S.S.S.S.S.S.S.S.S.S.S.S.S.S.S.S.S.S.S.S.S.S.S.S.S.S.S.S.S."
};
