/* XPM */
static char *freeimage[] = {
/* columns rows colors chars-per-pixel */
"16 16 71 1 ",
"  c #0E3A61",
". c #103B68",
"X c #103D69",
"o c #103F68",
"O c #0B445E",
"+ c #0C4761",
"@ c #0C4C65",
"# c #0F4D6E",
"$ c #0A5665",
"% c #0A5867",
"& c #0C526C",
"* c #0D526C",
"= c #0E5272",
"- c #0E5574",
"; c #0E5B78",
": c #0E5C78",
"> c #0E5C79",
", c #0A6275",
"< c #096973",
"1 c #0D667C",
"2 c #125882",
"3 c #116C8F",
"4 c #0E748D",
"5 c #127195",
"6 c #187DB0",
"7 c #187DB1",
"8 c #03B6A4",
"9 c #02C0A5",
"0 c #00EFBD",
"q c #01EFBF",
"w c #1C8DC2",
"e c #1C96CE",
"r c #1AA4D3",
"t c #1EA5DF",
"y c #1CB2E3",
"u c #1CB4E2",
"i c #1DB9ED",
"p c #1DB9EE",
"a c #1DBAEE",
"s c #1DBDF1",
"d c #1DBDF2",
"f c #1EBDF2",
"g c #02EDC3",
"h c #02ECC4",
"j c #01EEC6",
"k c #01F3C0",
"l c #01F0C3",
"z c #00FFC4",
"x c #00FFC5",
"c c #00FFC6",
"v c #00FBCA",
"b c #00FFCA",
"n c #00FFCC",
"m c #00FFCD",
"M c #00FFCE",
"N c #00FFD1",
"B c #00FFD2",
"V c #00FFD4",
"C c #00FFD9",
"Z c #00FFDB",
"A c #1EC2F7",
"S c #1EC2F8",
"D c #1EC3F8",
"F c #1FC5FC",
"G c #1FC6FD",
"H c #1FC7FE",
"J c #1FCAFF",
"K c #20CBFF",
"L c #20CDFF",
"P c #20CEFF",
"I c None",
/* pixels */
"IIIIIIIIIIIIIIII",
"IIIIIIIIIIIIIIII",
"IIIIIIIIIIIIIIII",
"IIIIIIccccIIIIII",
"IIIIcccnncccIIII",
"IIIIccNlgNccIIII",
"IIIZbNj:-gNbZIII",
"II180l=.X#gv9<II",
"I&Iw4% :: $,7III",
"IIIut7&O@@2eLIII",
"IIIDALy53rKHiIII",
"IIIIiiHHSKsiIIII",
"IIIIIiiffiiIIIII",
"IIIIIIIIIIIIIIII",
"IIIIIIIIIIIIIIII",
"IIIIIIIIIIIIIIII"
};
