/* XPM */
static char *freeimage[] = {
/* columns rows colors chars-per-pixel */
"64 64 75 1 ",
"  c #09384F",
". c #0F2953",
"X c #0B3A55",
"o c #0D3C5D",
"O c #10345F",
"+ c #122E62",
"@ c #113363",
"# c #113967",
"$ c #103E68",
"% c #0B425C",
"& c #0C4662",
"* c #0C4A65",
"= c #0F456B",
"- c #0E4D6C",
"; c #10416A",
": c #0D516D",
"> c #0F4E71",
", c #0E5775",
"< c #0E5976",
"1 c #0E5C7A",
"2 c #0D637A",
"3 c #0D6B7F",
"4 c #106182",
"5 c #116788",
"6 c #116B8C",
"7 c #0C7485",
"8 c #0B7884",
"9 c #126F91",
"0 c #127194",
"q c #13759A",
"w c #147CA2",
"e c #0A848C",
"r c #0A8991",
"t c #089996",
"y c #089E9A",
"u c #08A69A",
"i c #1580A6",
"p c #1584AB",
"a c #1687B0",
"s c #168CB6",
"d c #1793BF",
"f c #07A7A0",
"g c #06B4A4",
"h c #06BBA9",
"j c #05C5AF",
"k c #05C9AC",
"l c #04D2B3",
"z c #03E2BD",
"x c #02EABF",
"c c #1897C3",
"v c #1899C4",
"b c #189DCA",
"n c #19A1CE",
"m c #1AA4D4",
"M c #1AA8D7",
"N c #1BACDD",
"B c #1CB2E4",
"V c #1DBAEE",
"C c #1CB5E8",
"Z c #1DBDF2",
"A c #02ECC2",
"S c #01F2C5",
"D c #00FFC6",
"F c #01F6C9",
"G c #00FFCC",
"H c #00FFD4",
"J c #00FFD9",
"K c #1EC1F6",
"L c #1EC4FA",
"P c #1FC9FF",
"I c #20CEFF",
"U c #21D2FF",
"Y c #22DBFF",
"T c #00FFE0",
"R c None",
/* pixels */
"RRRRRRRRRRRRRRRRRRRRRRRRRRRRRRRRRRRRRRRRRRRRRRRRRRRRRRRRRRRRRRRR",
"RRRRRRRRRRRRRRRRRRRRRRRRRRRRRRRRRRRRRRRRRRRRRRRRRRRRRRRRRRRRRRRR",
"RRRRRRRRRRRRRRRRRRRRRRRRRRRRRRRRRRRRRRRRRRRRRRRRRRRRRRRRRRRRRRRR",
"RRRRRRRRRRRRRRRRRRRRRRRRRRRRRRRRRRRRRRRRRRRRRRRRRRRRRRRRRRRRRRRR",
"RRRRRRRRRRRRRRRRRRRRRRRRRRRRRRRRRRRRRRRRRRRRRRRRRRRRRRRRRRRRRRRR",
"RRRRRRRRRRRRRRRRRRRRRRRRRRRRRRRRRRRRRRRRRRRRRRRRRRRRRRRRRRRRRRRR",
"RRRRRRRRRRRRRRRRRRRRRRRRRRRRRRRRRRRRRRRRRRRRRRRRRRRRRRRRRRRRRRRR",
"RRRRRRRRRRRRRRRRRRRRRRRRRRRRRRRRRRRRRRRRRRRRRRRRRRRRRRRRRRRRRRRR",
"RRRRRRRRRRRRRRRRRRRRRRRRRRRRRRRRRRRRRRRRRRRRRRRRRRRRRRRRRRRRRRRR",
"RRRRRRRRRRRRRRRRRRRRRRRRRRRRRRRRRRRRRRRRRRRRRRRRRRRRRRRRRRRRRRRR",
"RRRRRRRRRRRRRRRRRRRRRRRRRRRRRRRRRRRRRRRRRRRRRRRRRRRRRRRRRRRRRRRR",
"RRRRRRRRRRRRRRRRRRRRRRRRRRRRDDDDDDDDRRRRRRRRRRRRRRRRRRRRRRRRRRRR",
"RRRRRRRRRRRRRRRRRRRRRRRRDDDDDDDDDDDDDDDRRRRRRRRRRRRRRRRRRRRRRRRR",
"RRRRRRRRRRRRRRRRRRRRRRDDDDDDDDDDDDDDDDDDDDRRRRRRRRRRRRRRRRRRRRRR",
"RRRRRRRRRRRRRRRRRRRRRDDDDDDDDDDDDDDDDDDDDDDRRRRRRRRRRRRRRRRRRRRR",
"RRRRRRRRRRRRRRRRRRRDDDDDDDDDDDDDDDDDDDDDDDDDDRRRRRRRRRRRRRRRRRRR",
"RRRRRRRRRRRRRRRRRRDDDDDDDDDDDDDDDDDDDDDDDDDDDDRRRRRRRRRRRRRRRRRR",
"RRRRRRRRRRRRRRRRRDDDDDDDDDDDDDDDDDDDDDDDDDDDDDDRRRRRRRRRRRRRRRRR",
"RRRRRRRRRRRRRRRRDDDDDDDDDDDDDDDDDDDDDDDDDDDDDDDDRRRRRRRRRRRRRRRR",
"RRRRRRRRRRRRRRRDDDDDDDDDDDDDDDDDDDDDDDDDDDDDDDDDDRRRRRRRRRRRRRRR",
"RRRRRRRRRRRRRRDDDDDDDDDDDDDDDDDDHDDDDDDDDDDDDDDDDDRRRRRRRRRRRRRR",
"RRRRRRRRRRRRRRDDDDDDDDDDDDDDDDHlgHDDDDDDDDDDDDDDDDRRRRRRRRRRRRRR",
"RRRRRRRRRRRRRDDDDDDDDDDDDDDDDHG<+AHDDDDDDDDDDDDDDDDRRRRRRRRRRRRR",
"RRRRRRRRRRRRRDDDDDDDDDDDDDDDGHe#$,FHDDDDDDDDDDDDDDDRRRRRRRRRRRRR",
"RRRRRRRRRRRRDDDDDDDDDDDDDDDHHe@,<#2SJDDDDDDDDDDDDDDDRRRRRRRRRRRR",
"RRRRRRRRRRRRDDDDDDDDDDDDDDJz3#,,,,#,lJGDDDDDDDDDDDDDRRRRRRRRRRRR",
"RRRRRRRRRRRRDDDDDDDDDDDDHHf=$,,,,,1;$yHHDDDDDDDDDDDDRRRRRRRRRRRR",
"RRRRRRRRRRRJDDDDDDDDDDDHF7+>1,,<,,,<>@3AHDDDDDDDDDDDDRRRRRRRRRRR",
"RRRRRRRRRRRFHHGDDDDDDDHS,@,<,,,,,,,,,,#-zHDDDDDDDDGHTRRRRRRRRRRR",
"RRRRRR,,,<=<rhAHHHDDDDG7@,,,,,,,,,,,,,,#1FGDDDDHJHSjy->,<RRRRRRR",
"RRRRR,,,<,&o.#,ehSHJHJk#,,,,,,,,,,,,,,,1+uHGHHGzgr<$.=1<<<RRRRRR",
"RRRR,,,RRRRn0*X@$<egzJt@,,,,,,<,,,,,,,,,$7HFjy7>##o&94RRRRRRRRRR",
"RRRR,,RRRRRIIMw-%=##>72,,,,,<,,,1,,,,<,,,<e<$#=,-%1vIRRRRRRRRRRR",
"RRRR,,RRRRRVZIINw*%,,;-<,,<,,,,,,,,,,,,,,,=-,,,&-aLUZRRRRRRRRRRR",
"RRRR,,RRRRRCCCVIYBq&&<,,,,,,,,,<,,,,,,,,,,,,,,X5BUZVVRRRRRRRRRRR",
"RRRR,,,RRRRIIIINMUYb1%,,,<<,,,,,,,,,,,<,,,,,*%iPIVVVVRRRRRRRRRRR",
"RRRRR,,1RRRKCs4,<2NYKi%&<,,,,,,,,,,,,<,,<<:o1nULCZVVVRRRRRRRRRRR",
"RRRRRR,,,,*,**0MCw,CIUm,%,<,,,,,,,,,,,,1*%,pKUVVZCVVRRRRRRRRRRRR",
"RRRRRRRR,,&,bCIIIUsbLVPZ9%*,,,,,,,,,,,*%,iCULVVVVCZVRRRRRRRRRRRR",
"RRRRRRRRRRRRUICVBCIVVVVLPc4&%*,,,<:&%*4sCILCVVVVVZVVRRRRRRRRRRRR",
"RRRRRRRRRRRRRVVVVVVVVVVVZPKvq61,,<59pnKPLVVVVVVVVVVRRRRRRRRRRRRR",
"RRRRRRRRRRRRRVVVVVVVVVVVVVKIUN:X%XwUUPKVVVVVVVVVVVVRRRRRRRRRRRRR",
"RRRRRRRRRRRRRRVVVVVVVVVVZVVVKNsappdKZVVVVVVVVVVVVVRRRRRRRRRRRRRR",
"RRRRRRRRRRRRRRVVVVVVVVVVVVVVVKUIIPPVVVVVVVVVVVVVVVRRRRRRRRRRRRRR",
"RRRRRRRRRRRRRRRVVVVVVVVVVVVVVVVVVVVVVVVVVVVVVVVVVRRRRRRRRRRRRRRR",
"RRRRRRRRRRRRRRRRVVVVVVVVVVVVVVVZVVVVVVVVVVVVVVVVRRRRRRRRRRRRRRRR",
"RRRRRRRRRRRRRRRRVVVVVVVVVVVVVVVVVVVVVVVVVVVVVVVRRRRRRRRRRRRRRRRR",
"RRRRRRRRRRRRRRRRRVVVVVVVVVVVVVVVVVVVVVVVVVVVVVVRRRRRRRRRRRRRRRRR",
"RRRRRRRRRRRRRRRRRRRVVVVVVVVVVVVVVVVVVVVVVZVVVRRRRRRRRRRRRRRRRRRR",
"RRRRRRRRRRRRRRRRRRRRVVVVVVVVVVVVVZVVVVVVVVVVRRRRRRRRRRRRRRRRRRRR",
"RRRRRRRRRRRRRRRRRRRRRRVVVVVVVVVVVVVVVVVVVVRRRRRRRRRRRRRRRRRRRRRR",
"RRRRRRRRRRRRRRRRRRRRRRRVVVVZVVVVVVVVVVVVRRRRRRRRRRRRRRRRRRRRRRRR",
"RRRRRRRRRRRRRRRRRRRRRRRRRRVVVVVVVVVVVVRRRRRRRRRRRRRRRRRRRRRRRRRR",
"RRRRRRRRRRRRRRRRRRRRRRRRRRRRRRRRRRRRRRRRRRRRRRRRRRRRRRRRRRRRRRRR",
"RRRRRRRRRRRRRRRRRRRRRRRRRRRRRRRRRRRRRRRRRRRRRRRRRRRRRRRRRRRRRRRR",
"RRRRRRRRRRRRRRRRRRRRRRRRRRRRRRRRRRRRRRRRRRRRRRRRRRRRRRRRRRRRRRRR",
"RRRRRRRRRRRRRRRRRRRRRRRRRRRRRRRRRRRRRRRRRRRRRRRRRRRRRRRRRRRRRRRR",
"RRRRRRRRRRRRRRRRRRRRRRRRRRRRRRRRRRRRRRRRRRRRRRRRRRRRRRRRRRRRRRRR",
"RRRRRRRRRRRRRRRRRRRRRRRRRRRRRRRRRRRRRRRRRRRRRRRRRRRRRRRRRRRRRRRR",
"RRRRRRRRRRRRRRRRRRRRRRRRRRRRRRRRRRRRRRRRRRRRRRRRRRRRRRRRRRRRRRRR",
"RRRRRRRRRRRRRRRRRRRRRRRRRRRRRRRRRRRRRRRRRRRRRRRRRRRRRRRRRRRRRRRR",
"RRRRRRRRRRRRRRRRRRRRRRRRRRRRRRRRRRRRRRRRRRRRRRRRRRRRRRRRRRRRRRRR",
"RRRRRRRRRRRRRRRRRRRRRRRRRRRRRRRRRRRRRRRRRRRRRRRRRRRRRRRRRRRRRRRR",
"RRRRRRRRRRRRRRRRRRRRRRRRRRRRRRRRRRRRRRRRRRRRRRRRRRRRRRRRRRRRRRRR"
};
